<?xml version="1.0" encoding="utf-8"?>
<!-- Generator: Adobe Illustrator 20.0.0, SVG Export Plug-In . SVG Version: 6.00 Build 0)  -->
<svg version="1.1" id="Ebene_2" xmlns="http://www.w3.org/2000/svg" xmlns:xlink="http://www.w3.org/1999/xlink" x="0px" y="0px"
	 viewBox="0 0 28.8 47.9" style="enable-background:new 0 0 28.8 47.9;" xml:space="preserve">
<style type="text/css">
	.st0{fill:#1A171B;}
</style>
<path class="st0" d="M19.7,19.7v4.2c-1.1,1.8-3.1,2.8-6,3c-3.5-0.3-5.2-1.7-4.9-4.4c0-2.7,1.6-4.1,4.9-4.2
	C16.6,18.4,18.5,18.8,19.7,19.7 M15,0c-2.6,0-4.8,0.3-6.7,0.8C6.4,1.4,4.5,2.2,2.6,3.4l3.3,6C7.4,8.6,8.8,8,10.2,7.7
	c1.3-0.3,3-0.4,4.8-0.4c3.1,0.2,4.7,1.5,4.7,4v1.7c-1.3-0.8-3.4-1.2-6.3-1.4c-3.9,0-7.1,0.9-9.6,2.7c-2.5,1.9-3.8,4.7-3.9,8.3
	c0.1,4,1.4,7,3.9,8.9c2.4,2,5.3,2.9,8.5,2.9c3.2-0.1,5.7-1.1,7.4-2.9v2.2h8.8V11.4C28.5,7.8,27.2,5,24.8,3C22.3,1,19.1,0,15,0
	 M0.8,47.9h27.9V40H0.8V47.9z"/>
</svg>
