<svg id="Layer_1" xmlns="http://www.w3.org/2000/svg" viewBox="0 0 69.4 50.7"><style>.st0{fill:#FFFFFF;}</style><path class="st0" d="M10 44.5V42H2.7v-3.6H10v-2.5H0v14.9h2.7v-6.2H10v-.1zm15.4 6.2l-5.5-14.9h-3.2l-5.5 14.9h2.7l1.4-3.7h5.9l1.4 3.7h2.8zm-5.1-6.1h-4.1l2.1-5.9 2 5.9zm20.4 6.1l-4.6-5.9h.5c.4 0 .8-.2 1.1-.4l1.5-1.5c.3-.3.5-.7.5-1.1v-3c0-.4-.2-.8-.5-1.1l-1.5-1.5c-.3-.3-.6-.4-1.1-.4h-8.3v14.9H31v-5.9h1.6c.2 0 .3.1.4.2l4.4 5.7h3.3zm-3.8-9.4c0 .1 0 .2-.1.3l-.5.5c-.1.1-.2.1-.3.1h-5v-3.9h5c.1 0 .2 0 .3.1l.5.5c.1.1.1.2.1.3v2.1zm18.5 6.4v-2.1c0-.4-.2-.8-.5-1.1l-1.3-1.3 1.3-1.3c.3-.3.5-.7.5-1.1v-2c0-.4-.2-.8-.5-1.1l-1.5-1.5c-.3-.3-.6-.4-1.1-.4H44v14.9h8.3c.4 0 .8-.1 1.1-.4l1.5-1.5c.4-.3.5-.7.5-1.1zm-2.6-7.2c0 .1 0 .2-.1.3l-1 1c-.1.1-.2.1-.3.1h-4.5v-3.6h5c.1 0 .2 0 .3.1l.5.5c.1.1.1.2.1.3v1.3zm0 6.7c0 .1 0 .2-.1.3l-.6.5c-.1.1-.2.1-.3.1h-5v-3.7h4.4c.1 0 .2 0 .3.1l1.1 1.1c.1.1.1.2.1.3v1.3h.1zm16.6 3.5v-2.5h-7.3v-3.6h7.3v-2.5h-7.3v-3.6h7.3V36h-10v14.9h10v-.2zM11.3 29.4v-8.1c0-.4-.2-.8-.5-1.1L9 18.4c-.3-.3-.7-.5-1.1-.5H0v14.9h7.9c.4 0 .8-.2 1.1-.5l1.8-1.8c.4-.3.5-.7.5-1.1zm-2.6-.5c0 .1 0 .2-.1.3l-.9.9c-.1.1-.2.1-.3.1H2.7v-9.8h4.7c.1 0 .2 0 .3.1l.9.9c.1.1.1.2.1.3v7.2zm16.7 3.9v-2.5h-7.3v-3.6h7.3v-2.5h-7.3v-3.6h7.3v-2.5h-10V33h10v-.2zm16.4 0l-4.6-5.9h.5c.4 0 .8-.2 1.1-.4l1.5-1.5c.3-.3.5-.7.5-1.1v-3c0-.4-.2-.8-.5-1.1l-1.5-1.5c-.3-.3-.6-.4-1.1-.4h-8.3v14.9h2.7v-5.9h1.6c.2 0 .3.1.4.2l4.4 5.7h3.3zm-3.7-9.4c0 .1 0 .2-.1.3l-.5.5c-.1.1-.2.1-.3.1h-5v-3.9h5c.1 0 .2 0 .3.1l.5.5c.1.1.1.2.1.3v2.1zm-26.8-8.5V0H8.7v6.2h-6V0H0v14.9h2.7V8.7h6v6.2h2.6zm17.6 0L23.4 0h-3.2l-5.5 14.9h2.7l1.4-3.7h5.9l1.4 3.7h2.8zm-5.1-6.1h-4.1l2.1-5.9 2 5.9zm18.9 2.7V0H40v11c0 .1 0 .2-.1.3l-.9.9c-.1.1-.2.1-.3.1h-3.3c-.1 0-.2 0-.3-.1l-.9-.9c-.1-.1-.1-.2-.1-.3V0h-2.7v11.5c0 .4.2.8.5 1.1l1.8 1.8c.3.3.7.5 1.1.5h4.5c.4 0 .8-.2 1.1-.5l1.8-1.8c.4-.3.5-.7.5-1.1zm16.2 0V8.6c0-.8-.7-1.6-1.5-1.7l-8-1.1c-.2 0-.4-.2-.4-.4V3.9c0-.1 0-.2.1-.3l.9-.9c.1-.1.2-.1.3-.1h5.1c.1 0 .2 0 .3.1l1.5 1.5L59 2.4 57 .5c-.3-.3-.6-.5-1.1-.5h-6.2c-.4 0-.8.2-1.1.5l-1.8 1.8c-.3.3-.5.7-.5 1.1v2.9c0 .8.7 1.6 1.5 1.7l8 1.1c.2 0 .4.2.4.4V11c0 .1 0 .2-.1.3l-.9.9c-.1.1-.2.1-.3.1h-5.1c-.1 0-.2 0-.3-.1L48 10.7l-1.8 1.8 1.9 1.9c.3.3.7.5 1.1.5h6.2c.4 0 .8-.2 1.1-.5l1.8-1.8c.5-.3.6-.7.6-1.1z"/></svg>