<svg id="Layer_1" xmlns="http://www.w3.org/2000/svg" viewBox="0 0 93.4 40.2"><style>.st0{fill:#FFFFFF;}</style><path class="st0" d="M5.5 38.7v-5.2h-.9v5.1c0 .1 0 .1-.1.1l-.5.6-.1.1H2.3c-.1 0-.1 0-.1-.1l-.6-.6-.1-.1v-5.1H.6v5.2c0 .2.1.4.2.5l.8.8c.1.1.3.2.5.2H4c.2 0 .4-.1.5-.2l.8-.8c.1-.1.2-.3.2-.5zm7 1.5v-6.7h-.9v5.7l-2.7-5.7H7.5v6.7h.9v-5.7l2.7 5.7h1.4zm7-1.5v-3.6c0-.2-.1-.4-.2-.5l-.8-.8c-.1-.1-.3-.2-.5-.2h-3.4v6.7H18c.2 0 .4-.1.5-.2l.8-.8c.2-.2.2-.4.2-.6zm-.9-.1c0 .1 0 .1-.1.1l-.5.6-.1.1h-2.3v-4.9h2.3c.1 0 .1 0 .1.1l.6.6.1.1-.1 3.3zm11.1 1.6l-2.5-6.7H26l-2.5 6.7h.9l.7-1.8h3l.7 1.8h.9zm-2-2.6h-2.4l1.2-3.2 1.2 3.2zm9 2.6l-2-2.8h.3c.2 0 .4-.1.5-.2l.6-.6c.1-.1.2-.3.2-.5v-1.3c0-.2-.1-.4-.2-.5l-.6-.6c-.1-.1-.3-.2-.5-.2h-3.7v6.7h.9v-2.8h1.3c.1 0 .1 0 .2.1l1.9 2.8h1.1v-.1zM35.3 36c0 .1 0 .1-.1.1l-.3.3-.1.1h-2.6v-2.1h2.6c.1 0 .1 0 .1.1l.3.3.1.1V36zm7.7 3.1l-.6-.6-.8.8-.1.1h-1.7c-.1 0-.1 0-.1-.1l-.6-.6-.1-.1v-3.4c0-.1 0-.1.1-.1l.6-.6.1-.1h1.7c.1 0 .1 0 .1.1l.8.8.6-.6-.9-.9c-.1-.1-.3-.2-.5-.2h-2c-.2 0-.4.1-.5.2l-.8.8c-.1.1-.2.3-.2.5v3.6c0 .2.1.4.2.5l.8.8c.1.1.3.2.5.2h2c.2 0 .4-.1.5-.2l.9-.9zm6.6 1.1v-6.7h-.9v2.9h-3.1v-2.9h-.9v6.7h.9v-2.9h3.1v2.9h.9zm5.1 0v-.8h-1.2v-5.1h1.2v-.8h-3.4v.8h1.2v5.1h-1.2v.8h3.4zm6.2-5.8v-.9H56v.9h2v5.8h.9v-5.8h2zm5.9 5.8v-.9h-3.4v-2h3.4v-.9h-3.4v-2h3.4v-.9h-4.3v6.7h4.3zm6.7 0l-3.1-3.4 3.1-3.4h-1.2l-2.7 2.9v-2.9h-.9v6.7h.9v-2.9l2.7 2.9h1.2v.1zm6-5.8v-.9h-4.9v.9h2v5.8h.9v-5.8h2zm6.5 4.3v-5.2h-1v5.1c0 .1 0 .1-.1.1l-.6.6-.1.1h-1.6c-.1 0-.1 0-.1-.1l-.5-.6-.1-.1v-5.1H81v5.2c0 .2.1.4.2.5l.8.8c.1.1.3.2.5.2h1.9c.2 0 .4-.1.5-.2l.8-.8c.2-.1.3-.3.3-.5zm7.4 1.5l-2-2.8h.3c.2 0 .4-.1.5-.2l.6-.6c.1-.1.2-.3.2-.5v-1.3c0-.2-.1-.4-.2-.5l-.6-.6c-.1-.1-.3-.2-.5-.2H88v6.7h.9v-2.8h1.3c.1 0 .1 0 .2.1l1.9 2.8h1.1v-.1zM92 36c0 .1 0 .1-.1.1l-.3.3-.1.1h-2.6v-2.1h2.6c.1 0 .1 0 .1.1l.3.3.1.1V36zM3.4 29.1v-.8H2.2v-5.1h1.2v-.8H0v.8h1.2v5.1H0v.8h3.4zm6.6 0v-6.7h-.9V28l-2.7-5.7H5.1V29H6v-5.7L8.7 29H10v.1zm10 0v-6.7h-.9v2.9H16v-2.9h-.9v6.7h.9v-2.9h3.1v2.9h.9zm7.8 0l-2.5-6.7h-1.2l-2.5 6.7h.9l.7-1.8h3l.7 1.8h.9zm-1.9-2.7h-2.4l1.2-3.2 1.2 3.2zm8.5 2.7v-6.7h-.9V28l-2.7-5.7h-1.4V29h.9v-5.7L33 29h1.4v.1zm7-1.6v-3.6c0-.2-.1-.4-.2-.5l-.8-.8c-.1-.1-.3-.2-.5-.2h-3.4v6.7h3.4c.2 0 .4-.1.5-.2l.8-.8c.2-.2.2-.4.2-.6zm-.9-.1c0 .1 0 .1-.1.1l-.6.6-.1.1h-2.3v-4.9h2.3c.1 0 .1 0 .1.1l.6.6.1.1v3.3zm10.1-5h-.9l-1.2 5.8-1.1-5.8h-1.3l-1.2 5.8-1.1-5.8h-.9l1.4 6.7h1.2l1.2-5.8 1.2 5.8h1.3l1.4-6.7zm6 6.7v-.9h-3.4v-2h3.4v-.9h-3.4v-2h3.4v-.9h-4.3v6.7h4.3zm7.3 0l-2-2.8h.3c.2 0 .4-.1.5-.2l.6-.6c.1-.1.2-.3.2-.5v-1.3c0-.2-.1-.4-.2-.5l-.6-.6c-.1-.1-.3-.2-.5-.2h-3.7v6.7h.9v-2.8h1.3c.1 0 .1 0 .2.1l1.9 2.8h1.1v-.1zm-1.4-4.3c0 .1 0 .1-.1.1l-.3.3-.1.1h-2.6v-2.1H62c.1 0 .1 0 .1.1l.3.3.1.1v1.1zm7.9 4.3l-3.1-3.4 3.1-3.4h-1.2l-2.7 2.9v-2.9h-.9V29h.9v-2.9l2.7 2.9h1.2v.1zM5 15v-.9H1.6v-2H5v-.9H.7v6.7h.9V15H5zm5.7-4.7v-1h-1v1h1zm-2 0v-1h-1v1h1zm3 6v-5.2h-.9v5.1c0 .1 0 .1-.1.1l-.6.6-.1.1H8.4c-.1 0-.1 0-.1-.1l-.6-.6-.1-.1v-5.1h-.9v5.2c0 .2.1.4.2.5l.8.8c.1.1.3.2.5.2h1.9c.2 0 .4-.1.5-.2l.8-.8c.2-.1.3-.3.3-.5zm7.4 1.6l-2-2.8h.3c.2 0 .4-.1.5-.2l.6-.6c.1-.1.2-.3.2-.5v-1.3c0-.2-.1-.4-.2-.5l-.6-.6c-.1-.1-.3-.2-.5-.2h-3.7v6.7h.9V15h1.3c.1 0 .1 0 .2.1l1.9 2.8h1.1zm-1.4-4.3c0 .1 0 .1-.1.1l-.3.3-.1.1h-2.6V12h2.6c.1 0 .1 0 .1.1l.3.3.1.1v1.1zm11.5 4.3l-.3-1.3v-2.5h-2.7v.9H28v.8c0 .1 0 .1-.1.1l-1.1 1-.1.1H25c-.1 0-.1 0-.1-.1l-.6-.6-.1-.1v-3.4c0-.1 0-.1.1-.1l.6-.6.1-.1h2.2c.1 0 .1 0 .1.1l.8.8.6-.6-.9-.9c-.1-.1-.3-.2-.5-.2h-2.5c-.2 0-.4.1-.5.2l-.8.8c-.1.1-.2.3-.2.5v3.6c0 .2.1.4.2.5l.8.8c.1.1.3.2.5.2h2c.2 0 .4-.1.5-.2l.7-.7.2 1h1zm6.1 0V17h-3.4v-2h3.4v-.9h-3.4v-2h3.4v-.9H31v6.7h4.3zm7.2-1.6v-1.2c0-.4-.3-.7-.7-.7l-3.8-.5c-.1 0-.2-.1-.2-.2v-.8c0-.1 0-.1.1-.1l.6-.6.1-.1h2.3c.1 0 .1 0 .1.1l.8.8.6-.6-1-.9c-.1-.1-.3-.2-.5-.2h-2.6c-.2 0-.4.1-.5.2l-.8.8V14c0 .4.3.7.7.7l3.8.5c.1 0 .2.1.2.2v.8c0 .1 0 .1-.1.1l-.6.6-.1.1h-2.3c-.1 0-.1 0-.1-.1l-.8-.8-.7.6.9.9c.1.1.3.2.5.2H41c.2 0 .4-.1.5-.2l.8-.8c.2-.1.2-.3.2-.5zm6.3-4.2v-.9h-4.9v.9h2v5.8h.9v-5.8h2zm6.4 5.8l-2.5-6.7h-1.2L49 17.9h.9l.7-1.8h3l.7 1.8h.9zm-2-2.7h-2.4L52 12l1.2 3.2zm7.9 2.7V17h-3.4v-5.8h-.9v6.7h4.3zm5.1-5.8v-.9h-4.9v.9h2v5.8h.9v-5.8h2zm6.4 4.2v-5.2h-.9v5.1c0 .1 0 .1-.1.1l-.6.6-.1.1h-1.6c-.1 0-.1 0-.1-.1l-.6-.6-.1-.1v-5.1h-.9v5.2c0 .2.1.4.2.5l.8.8c.1.1.3.2.5.2H71c.2 0 .4-.1.5-.2l.8-.8c.3-.1.3-.3.3-.5zm7 1.6v-6.7h-.9v5.7L76 11.2h-1.4v6.7h.9v-5.7l2.7 5.7h1.4zm7.8 0l-.3-1.3v-2.5h-2.7v.9h1.8v.8c0 .1 0 .1-.1.1l-1.1 1-.1.1h-1.7c-.1 0-.1 0-.1-.1l-.6-.6-.1-.1v-3.4c0-.1 0-.1.1-.1l.6-.6.1-.1h2.2c.1 0 .1 0 .1.1l.8.8.6-.6-.9-.9c-.1-.1-.3-.2-.5-.2H83c-.2 0-.4.1-.5.2l-.8.8c-.1.1-.2.3-.2.5v3.6c0 .2.1.4.2.5l.8.8c.1.1.3.2.5.2h2c.2 0 .4-.1.5-.2l.7-.7.2 1h1zM4.6 3.8v-.9H1.2v-2h3.4V0H.2v6.7h.9V3.8h3.5zm7 2.9L9.1 0H7.9L5.4 6.7h.9L7 4.9h3l.7 1.8h.9zM9.7 4.1H7.3L8.5.9l1.2 3.2zm8.1 1.5l-.6-.6-.8.8-.1.1h-1.7c-.1 0-.1 0-.1-.1l-.6-.6-.1-.1V1.7c0-.1 0-.1.1-.1l.6-.6.1-.1h1.7c.1 0 .1 0 .1.1l.8.8.6-.6-.9-.9c-.2-.2-.4-.3-.6-.3h-2c-.2 0-.4.1-.5.2L13 1c-.1.1-.2.3-.2.5v3.6c0 .2.1.4.2.5l.8.8c.1.1.3.2.5.2h2c.2 0 .4-.1.5-.2l1-.8zm6.6 1.1V0h-.9v2.9h-3.1V0h-.9v6.7h.9V3.8h3.1v2.9h.9zm7.4-1.5V3.9c0-.4-.3-.7-.7-.7l-3.8-.5c-.1 0-.2-.1-.2-.2v-.8c0-.1 0-.1.1-.1l.6-.6.1-.1h2.3c.1 0 .1 0 .1.1l.8.8.6-.6-1-.9c0-.2-.2-.3-.4-.3h-2.6c-.2 0-.4.1-.5.2l-.8.8c-.1.1-.2.3-.2.5v1.2c0 .4.3.7.7.7l3.8.6c.1 0 .2.1.2.2V5c0 .1 0 .1-.1.1l-.6.6-.1.1h-2.3c-.1 0-.1 0-.1-.1l-.8-.8-.6.6.9.9c.1.1.3.2.5.2h2.6c.2 0 .4-.1.5-.2l.8-.8c.1-.1.2-.2.2-.4zm6.6.4l-.6-.6-.8.8-.1.1h-1.7c-.1 0-.1 0-.1-.1l-.6-.6-.1-.1V1.7c0-.1 0-.1.1-.1l.5-.7.1-.1h1.7c.1 0 .1 0 .1.1l.8.8.6-.6-.9-.9c-.1-.1-.3-.2-.5-.2h-2c-.2 0-.4.1-.5.2l-.7.8c-.1.1-.2.3-.2.5v3.6c0 .2.1.4.2.5l.8.8c.1.1.3.2.5.2h2c.2 0 .4-.1.5-.2l.9-.8zM45 6.7V0h-.9v2.9H41V0h-.9v6.7h.9V3.8h3.1v2.9h.9zm7-1.5V0h-.9v5.1c0 .1 0 .1-.1.1l-.6.6-.1.1h-1.6c-.1 0-.1 0-.1-.1l-.6-.6-.1-.1V0H47v5.2c0 .2.1.4.2.5l.8.8c.1.1.3.2.5.2h1.9c.2 0 .4-.1.5-.2l.8-.8c.2-.2.3-.3.3-.5zm6.3 1.5v-.9h-3.4V0H54v6.7h4.3zm5.9 0v-.9h-3.4v-2h3.4v-.9h-3.4v-2h3.4V0h-4.3v6.7h4.3z"/></svg>