<?xml version="1.0" standalone="no"?>
<!DOCTYPE svg PUBLIC "-//W3C//DTD SVG 20010904//EN"
 "http://www.w3.org/TR/2001/REC-SVG-20010904/DTD/svg10.dtd">
<svg version="1.0" xmlns="http://www.w3.org/2000/svg"
 width="260.000000pt" height="260.000000pt" viewBox="0 0 260.000000 260.000000"
 preserveAspectRatio="xMidYMid meet">
<metadata>
Created by potrace 1.11, written by Peter Selinger 2001-2013
</metadata>
<g transform="translate(0.000000,260.000000) scale(0.100000,-0.100000)"
fill="#000000" stroke="none">
<path d="M1119 2365 c-114 -21 -324 -103 -343 -133 -4 -7 86 -180 130 -250
l15 -22 47 24 c104 52 149 61 297 61 123 0 145 -3 180 -21 61 -32 85 -74 85
-152 0 -57 -2 -63 -17 -57 -78 30 -147 40 -278 40 -156 0 -236 -18 -349 -78
-187 -99 -269 -298 -220 -535 33 -159 122 -275 268 -346 94 -45 162 -60 271
-59 109 1 200 27 270 78 l50 35 3 -40 3 -40 200 0 200 0 -3 558 c-3 540 -4
559 -25 613 -56 148 -170 251 -338 305 -67 22 -103 27 -225 30 -98 2 -169 -1
-221 -11z m316 -829 c97 -25 95 -23 95 -141 0 -102 0 -104 -31 -135 -52 -51
-149 -90 -230 -90 -105 0 -218 72 -220 141 -4 140 22 194 108 224 49 18 213
19 278 1z"/>
<path d="M690 405 l0 -175 625 0 625 0 0 175 0 175 -625 0 -625 0 0 -175z"/>
</g>
</svg>
